PathFileType	4	(X/Y/Z)	 Static_Ext01.trc
DataRate	CameraRate	NumFrames	NumMarkers	Units	OrigDataRate	OrigDataStartFrame	OrigNumFrames
250	250	8	38	m	250	53	423
Frame#	Time	RASI			LASI			RPSI			LPSI			RAIC			LAIC			RLFC			RMFC			RTH1			RTH2			RTH3			RLMAL			RMMAL			RTB1			RTB2			RTB3			RCAL			RMT1			RMT5			LLFC			LMFC			LTH1			LTH2			LTH3			LLMAL			LMMAL			LTB1			LTB2			LTB3			LCAL			LMT1			LMT5			C7			T10			CLAV			STRN			RACR			LACR			
		X1	Y1	Z1	X2	Y2	Z2	X3	Y3	Z3	X4	Y4	Z4	X5	Y5	Z5	X6	Y6	Z6	X7	Y7	Z7	X8	Y8	Z8	X9	Y9	Z9	X10	Y10	Z10	X11	Y11	Z11	X12	Y12	Z12	X13	Y13	Z13	X14	Y14	Z14	X15	Y15	Z15	X16	Y16	Z16	X17	Y17	Z17	X18	Y18	Z18	X19	Y19	Z19	X20	Y20	Z20	X21	Y21	Z21	X22	Y22	Z22	X23	Y23	Z23	X24	Y24	Z24	X25	Y25	Z25	X26	Y26	Z26	X27	Y27	Z27	X28	Y28	Z28	X29	Y29	Z29	X30	Y30	Z30	X31	Y31	Z31	X32	Y32	Z32	X33	Y33	Z33	X34	Y34	Z34	X35	Y35	Z35	X36	Y36	Z36	X37	Y37	Z37	X38	Y38	Z38	
53	0.2120	0.376494	0.983270	0.413409	0.356136	0.980627	0.176440	0.191497	1.049815	0.354850	0.186189	1.054032	0.282349	0.304826	1.077674	0.459440	0.291012	1.076810	0.151618	0.251096	0.503460	0.461128	0.234920	0.494747	0.357573	0.277937	0.868596	0.497468	0.319441	0.773479	0.483649	0.257456	0.691689	0.489957	0.173854	0.095297	0.480125	0.199010	0.102789	0.396026	0.248074	0.369132	0.402342	0.251629	0.307433	0.459768	0.228013	0.233926	0.414998	0.110144	0.039774	0.420046	0.325523	0.046266	0.414665	0.313500	0.041963	0.507683	0.242941	0.517138	0.154364	0.244152	0.502121	0.265342	0.287234	0.863891	0.123536	0.327249	0.769105	0.138198	0.263283	0.686012	0.124824	0.173614	0.098849	0.140671	0.204083	0.102507	0.222310	0.252584	0.369029	0.212742	0.244780	0.301076	0.157482	0.227619	0.234397	0.208308	0.105768	0.041215	0.198612	0.327961	0.044513	0.196611	0.307817	0.046070	0.109916	0.212349	1.520905	0.304319	0.173042	1.224762	0.309399	0.323123	1.443567	0.304826	0.387705	1.237025	0.303174	0.224633	1.504076	0.450472	0.230441	1.513030	0.163398	
54	0.2160	0.376615	0.983240	0.413471	0.356344	0.980656	0.176474	0.191627	1.049810	0.354832	0.186343	1.054036	0.282344	0.304941	1.077668	0.459471	0.291227	1.076821	0.151641	0.251139	0.503428	0.461163	0.234978	0.494734	0.357571	0.278033	0.868571	0.497447	0.319553	0.773431	0.483721	0.257696	0.691663	0.489792	0.173847	0.095308	0.480111	0.199035	0.102807	0.395986	0.247917	0.369422	0.402191	0.251699	0.307422	0.459820	0.228024	0.233959	0.414947	0.110132	0.039792	0.420038	0.325536	0.046219	0.414666	0.313507	0.041974	0.507659	0.243005	0.517160	0.154361	0.244202	0.502116	0.265348	0.287425	0.863928	0.123563	0.327406	0.769074	0.138245	0.263410	0.685999	0.124828	0.173618	0.098858	0.140704	0.204116	0.102501	0.222318	0.252623	0.369042	0.212747	0.244828	0.301142	0.157419	0.227642	0.234409	0.208297	0.105770	0.041216	0.198616	0.327971	0.044502	0.196623	0.307826	0.046068	0.109920	0.212459	1.520888	0.304407	0.173182	1.224765	0.309408	0.323244	1.443606	0.304957	0.387887	1.237084	0.303305	0.224658	1.504047	0.450589	0.230607	1.513068	0.163489	
55	0.2200	0.376714	0.983235	0.413516	0.356520	0.980641	0.176504	0.191768	1.049813	0.354808	0.186515	1.054037	0.282335	0.305038	1.077649	0.459506	0.291406	1.076827	0.151681	0.251195	0.503404	0.461152	0.235057	0.494681	0.357557	0.278108	0.868553	0.497427	0.319639	0.773426	0.483695	0.257647	0.691635	0.489930	0.173843	0.095305	0.480099	0.199158	0.102726	0.396073	0.248170	0.369159	0.402302	0.251713	0.307405	0.459790	0.228065	0.233930	0.414950	0.110141	0.039789	0.420038	0.325477	0.046165	0.414640	0.313522	0.041974	0.507709	0.243085	0.517187	0.154378	0.244256	0.502139	0.265353	0.287584	0.863940	0.123600	0.327561	0.769111	0.138300	0.263551	0.686061	0.124861	0.173611	0.098909	0.140676	0.204138	0.102522	0.222310	0.252638	0.369053	0.212762	0.244845	0.301142	0.157416	0.227667	0.234427	0.208337	0.105767	0.041223	0.198618	0.327931	0.044458	0.196599	0.307810	0.046064	0.109897	0.212561	1.520885	0.304500	0.173328	1.224730	0.309416	0.323373	1.443600	0.305145	0.388049	1.237133	0.303408	0.224694	1.504010	0.450679	0.230761	1.513092	0.163572	
56	0.2240	0.376837	0.983225	0.413586	0.356560	0.980665	0.176631	0.191900	1.049799	0.354809	0.186675	1.054030	0.282315	0.305154	1.077628	0.459529	0.291600	1.076834	0.151716	0.251264	0.503373	0.461160	0.235116	0.494653	0.357526	0.278194	0.868516	0.497423	0.319717	0.773407	0.483687	0.257749	0.691620	0.489943	0.173854	0.095307	0.480087	0.199068	0.102775	0.396014	0.248317	0.368982	0.402177	0.251735	0.307407	0.459796	0.228081	0.233937	0.414959	0.110134	0.039790	0.420028	0.325498	0.046179	0.414657	0.313507	0.041967	0.507687	0.243150	0.517205	0.154384	0.244291	0.502153	0.265342	0.287767	0.863958	0.123627	0.327695	0.769112	0.138306	0.263658	0.686102	0.124913	0.173648	0.098898	0.140696	0.204123	0.102523	0.222307	0.252662	0.369015	0.212733	0.244882	0.301112	0.157490	0.227707	0.234434	0.208273	0.105760	0.041254	0.198614	0.327974	0.044536	0.196622	0.307823	0.046068	0.109906	0.212671	1.520878	0.304589	0.173469	1.224716	0.309409	0.323469	1.443616	0.305220	0.388194	1.237162	0.303531	0.224732	1.503988	0.450747	0.230938	1.513115	0.163663	
57	0.2280	0.376949	0.983203	0.413633	0.356875	0.980664	0.176630	0.192038	1.049801	0.354806	0.186853	1.054041	0.282324	0.305257	1.077613	0.459562	0.291801	1.076863	0.151703	0.251356	0.503346	0.461099	0.235214	0.494608	0.357550	0.278262	0.868504	0.497442	0.319803	0.773362	0.483670	0.257826	0.691582	0.489926	0.173844	0.095312	0.480085	0.199089	0.102784	0.395992	0.248344	0.368977	0.402144	0.251791	0.307378	0.459801	0.228143	0.233921	0.414961	0.110140	0.039811	0.420031	0.325556	0.046210	0.414748	0.313501	0.041964	0.507680	0.243211	0.517223	0.154384	0.244329	0.502173	0.265361	0.287942	0.863978	0.123668	0.327825	0.769125	0.138342	0.263766	0.686119	0.124964	0.173650	0.098881	0.140655	0.204113	0.102571	0.222242	0.252708	0.369046	0.212756	0.244903	0.301144	0.157492	0.227726	0.234452	0.208270	0.105778	0.041264	0.198618	0.327992	0.044577	0.196634	0.307843	0.046059	0.109921	0.212765	1.520870	0.304684	0.173597	1.224696	0.309431	0.323642	1.443684	0.305366	0.388338	1.237216	0.303622	0.224776	1.503975	0.450836	0.231098	1.513134	0.163754	
58	0.2320	0.377064	0.983156	0.413716	0.357069	0.980678	0.176650	0.192181	1.049795	0.354789	0.187031	1.054055	0.282304	0.305355	1.077612	0.459620	0.292021	1.076870	0.151737	0.251449	0.503308	0.461170	0.235293	0.494615	0.357517	0.278328	0.868487	0.497423	0.319890	0.773354	0.483708	0.257924	0.691577	0.489918	0.173833	0.095321	0.480077	0.199150	0.102733	0.396028	0.248491	0.368847	0.402521	0.251789	0.307351	0.459794	0.228153	0.233927	0.414931	0.110140	0.039819	0.420028	0.325513	0.046069	0.414716	0.313512	0.041960	0.507692	0.243264	0.517238	0.154381	0.244368	0.502186	0.265362	0.288108	0.864020	0.123694	0.327969	0.769141	0.138361	0.263911	0.686143	0.124950	0.173630	0.098926	0.140656	0.204135	0.102534	0.222283	0.252756	0.369033	0.212830	0.244937	0.301141	0.157505	0.227740	0.234481	0.208278	0.105780	0.041269	0.198618	0.327988	0.044541	0.196605	0.307834	0.046050	0.109923	0.212876	1.520862	0.304770	0.173739	1.224680	0.309412	0.323750	1.443646	0.305501	0.388474	1.237249	0.303696	0.224796	1.503948	0.450905	0.231273	1.513158	0.163837	
59	0.2360	0.377175	0.983166	0.413741	0.357265	0.980695	0.176707	0.192309	1.049794	0.354789	0.187190	1.054064	0.282282	0.305462	1.077598	0.459641	0.292214	1.076888	0.151742	0.251555	0.503316	0.461172	0.235377	0.494596	0.357523	0.278394	0.868452	0.497425	0.319972	0.773362	0.483717	0.258020	0.691559	0.489933	0.173838	0.095321	0.480071	0.199112	0.102789	0.396013	0.248515	0.368902	0.402279	0.251841	0.307400	0.459782	0.228172	0.233895	0.414926	0.110177	0.039834	0.420023	0.325548	0.046239	0.414633	0.313512	0.041955	0.507688	0.243320	0.517262	0.154406	0.244418	0.502189	0.265360	0.288275	0.864054	0.123729	0.328106	0.769156	0.138388	0.264010	0.686179	0.124989	0.173654	0.098926	0.140672	0.204158	0.102578	0.222262	0.252776	0.369078	0.212753	0.244948	0.301159	0.157467	0.227759	0.234495	0.208277	0.105784	0.041281	0.198612	0.327994	0.044543	0.196649	0.307830	0.046049	0.109904	0.212981	1.520844	0.304840	0.173869	1.224659	0.309408	0.323894	1.443712	0.305646	0.388634	1.237301	0.303827	0.224847	1.503925	0.451001	0.231459	1.513184	0.163938	
60	0.2400	0.377291	0.983134	0.413791	0.357467	0.980712	0.176752	0.192431	1.049789	0.354779	0.187369	1.054081	0.282280	0.305599	1.077593	0.459665	0.292573	1.076833	0.151899	0.251644	0.503286	0.461188	0.235467	0.494581	0.357511	0.278478	0.868446	0.497431	0.320057	0.773325	0.483710	0.258096	0.691534	0.489937	0.173844	0.095336	0.480059	0.199091	0.102831	0.395954	0.248626	0.368802	0.402500	0.251888	0.307358	0.459811	0.228183	0.233923	0.414866	0.110170	0.039820	0.420010	0.325682	0.046345	0.414660	0.313517	0.041973	0.507711	0.243345	0.517284	0.154391	0.244477	0.502206	0.265377	0.288440	0.864080	0.123756	0.328258	0.769192	0.138415	0.264085	0.686221	0.125047	0.173654	0.098943	0.140657	0.204158	0.102571	0.222290	0.252815	0.369099	0.212722	0.244989	0.301165	0.157482	0.227795	0.234489	0.208274	0.105784	0.041278	0.198620	0.328001	0.044502	0.196639	0.307841	0.046037	0.109917	0.213094	1.520845	0.304930	0.174021	1.224638	0.309420	0.324011	1.443699	0.305768	0.388767	1.237333	0.303934	0.224874	1.503906	0.451072	0.231584	1.513221	0.163963	
